<svg width="100%" viewBox="0 0 680 820">
  <defs>
    <marker id="arrow" viewBox="0 0 10 10" refX="8" refY="5" markerWidth="6" markerHeight="6" orient="auto-start-reverse">
      <path d="M2 1L8 5L2 9" fill="none" stroke="context-stroke" stroke-width="1.5" stroke-linecap="round" stroke-linejoin="round"/>
    </marker>
  </defs>

  <!-- ── PHASE LABELS ── -->
  <text class="ts" x="14" y="118" text-anchor="middle" transform="rotate(-90,14,118)" style="font-weight:500;fill:var(--color-text-secondary)">cliente</text>
  <text class="ts" x="14" y="320" text-anchor="middle" transform="rotate(-90,14,320)" style="font-weight:500;fill:var(--color-text-secondary)">rag</text>
  <text class="ts" x="14" y="548" text-anchor="middle" transform="rotate(-90,14,548)" style="font-weight:500;fill:var(--color-text-secondary)">llm</text>
  <text class="ts" x="14" y="714" text-anchor="middle" transform="rotate(-90,14,714)" style="font-weight:500;fill:var(--color-text-secondary)">dados</text>

  <!-- ── PHASE BANDS ── -->
  <rect x="28" y="44"  width="636" height="168" rx="10" fill="none" stroke="var(--color-border-tertiary)" stroke-width="0.5" stroke-dasharray="4 3"/>
  <rect x="28" y="232" width="636" height="196" rx="10" fill="none" stroke="var(--color-border-tertiary)" stroke-width="0.5" stroke-dasharray="4 3"/>
  <rect x="28" y="448" width="636" height="196" rx="10" fill="none" stroke="var(--color-border-tertiary)" stroke-width="0.5" stroke-dasharray="4 3"/>
  <rect x="28" y="664" width="636" height="120" rx="10" fill="none" stroke="var(--color-border-tertiary)" stroke-width="0.5" stroke-dasharray="4 3"/>

  <!-- ══════════════════════
       FASE CLIENTE
  ══════════════════════ -->

  <!-- Dash — formulário -->
  <g class="node c-blue" onclick="sendPrompt('Como funciona o formulário de voo no Dash para o RAG?')">
    <rect x="44" y="66" width="168" height="56" rx="6" stroke-width="0.5"/>
    <text class="th" x="128" y="87" text-anchor="middle" dominant-baseline="central">Dash — formulário</text>
    <text class="ts" x="128" y="107" text-anchor="middle" dominant-baseline="central">origem · destino · data</text>
  </g>

  <!-- Dash — chat -->
  <g class="node c-blue" onclick="sendPrompt('Como funciona o chat livre no Dash para o RAG?')">
    <rect x="256" y="66" width="168" height="56" rx="6" stroke-width="0.5"/>
    <text class="th" x="340" y="87" text-anchor="middle" dominant-baseline="central">Dash — chat</text>
    <text class="ts" x="340" y="107" text-anchor="middle" dominant-baseline="central">linguagem natural livre</text>
  </g>

  <!-- FastAPI /rag-advise -->
  <g class="node c-blue" onclick="sendPrompt('O que o endpoint /rag-advise recebe e retorna?')">
    <rect x="468" y="66" width="168" height="56" rx="6" stroke-width="0.5"/>
    <text class="th" x="552" y="87" text-anchor="middle" dominant-baseline="central">FastAPI</text>
    <text class="ts" x="552" y="107" text-anchor="middle" dominant-baseline="central">POST /rag-advise</text>
  </g>

  <!-- seta formulário → FastAPI -->
  <path d="M212 94 L256 94" fill="none" class="arr" marker-end="url(#arrow)" stroke="var(--color-border-secondary)"/>
  <!-- seta chat → FastAPI -->
  <path d="M424 94 L466 94" fill="none" class="arr" marker-end="url(#arrow)" stroke="var(--color-border-secondary)"/>

  <!-- label abaixo dos inputs -->
  <text class="ts" x="340" y="158" text-anchor="middle" style="fill:var(--color-text-secondary)">query estruturada + pergunta livre</text>
  <line x1="552" y1="122" x2="552" y2="170" fill="none" stroke="var(--color-border-secondary)" stroke-width="1.5" marker-end="url(#arrow)"/>
  <path d="M340 122 L340 158 L552 158 L552 170" fill="none" stroke="var(--color-border-secondary)" stroke-width="1" stroke-dasharray="4 3"/>

  <!-- ══════════════════════
       FASE RAG
  ══════════════════════ -->

  <!-- RAG Retriever -->
  <g class="node c-purple" onclick="sendPrompt('Como o RAG retriever funciona com o Athena?')">
    <rect x="44" y="254" width="168" height="56" rx="6" stroke-width="0.5"/>
    <text class="th" x="128" y="275" text-anchor="middle" dominant-baseline="central">RAG retriever</text>
    <text class="ts" x="128" y="295" text-anchor="middle" dominant-baseline="central">src/rag/retriever.py</text>
  </g>

  <!-- FAISS vector store -->
  <g class="node c-purple" onclick="sendPrompt('Como o FAISS é indexado a partir do Athena?')">
    <rect x="256" y="254" width="168" height="56" rx="6" stroke-width="0.5"/>
    <text class="th" x="340" y="275" text-anchor="middle" dominant-baseline="central">FAISS vector store</text>
    <text class="ts" x="340" y="295" text-anchor="middle" dominant-baseline="central">indexado do Athena</text>
  </g>

  <!-- Contexto montado -->
  <g class="node c-purple" onclick="sendPrompt('O que entra no contexto final enviado ao Qwen 3?')">
    <rect x="468" y="254" width="168" height="56" rx="6" stroke-width="0.5"/>
    <text class="th" x="552" y="275" text-anchor="middle" dominant-baseline="central">Contexto montado</text>
    <text class="ts" x="552" y="295" text-anchor="middle" dominant-baseline="central">previsões · rotas · padrões</text>
  </g>

  <!-- RAG indexer (abaixo) -->
  <g class="node c-purple" onclick="sendPrompt('Como funciona o indexer que popula o FAISS?')">
    <rect x="256" y="358" width="168" height="44" rx="6" stroke-width="0.5"/>
    <text class="th" x="340" y="377" text-anchor="middle" dominant-baseline="central">RAG indexer</text>
    <text class="ts" x="340" y="393" text-anchor="middle" dominant-baseline="central">src/rag/indexer.py</text>
  </g>

  <!-- setas fase RAG -->
  <path d="M552 170 L552 232 L128 232 L128 252" fill="none" class="arr" marker-end="url(#arrow)" stroke="var(--color-border-secondary)"/>
  <line x1="212" y1="282" x2="254" y2="282" class="arr" marker-end="url(#arrow)" stroke="var(--color-border-secondary)"/>
  <line x1="424" y1="282" x2="466" y2="282" class="arr" marker-end="url(#arrow)" stroke="var(--color-border-secondary)"/>
  <line x1="340" y1="310" x2="340" y2="356" class="arr" marker-end="url(#arrow)" stroke="var(--color-border-secondary)"/>

  <!-- ══════════════════════
       FASE LLM
  ══════════════════════ -->

  <!-- Prompt builder -->
  <g class="node c-teal" onclick="sendPrompt('O que o prompt builder monta antes de chamar o Qwen 3?')">
    <rect x="44" y="470" width="168" height="56" rx="6" stroke-width="0.5"/>
    <text class="th" x="128" y="491" text-anchor="middle" dominant-baseline="central">Prompt builder</text>
    <text class="ts" x="128" y="511" text-anchor="middle" dominant-baseline="central">system · query · contexto</text>
  </g>

  <!-- Qwen 3 HF API -->
  <g class="node c-teal" onclick="sendPrompt('Como o Qwen 3 é chamado via API no Hugging Face?')">
    <rect x="256" y="470" width="168" height="56" rx="6" stroke-width="0.5"/>
    <text class="th" x="340" y="491" text-anchor="middle" dominant-baseline="central">Qwen 3</text>
    <text class="ts" x="340" y="511" text-anchor="middle" dominant-baseline="central">HF Spaces API</text>
  </g>

  <!-- Resposta -->
  <g class="node c-teal" onclick="sendPrompt('O que o Qwen 3 retorna para o usuário?')">
    <rect x="468" y="470" width="168" height="56" rx="6" stroke-width="0.5"/>
    <text class="th" x="552" y="491" text-anchor="middle" dominant-baseline="central">Resposta gerada</text>
    <text class="ts" x="552" y="511" text-anchor="middle" dominant-baseline="central">sugestão · risco · motivo</text>
  </g>

  <!-- Dash resultado -->
  <g class="node c-blue" onclick="sendPrompt('Como o Dash exibe a sugestão do Qwen 3 ao cliente?')">
    <rect x="468" y="578" width="168" height="44" rx="6" stroke-width="0.5"/>
    <text class="th" x="552" y="597" text-anchor="middle" dominant-baseline="central">Dash — resultado</text>
    <text class="ts" x="552" y="613" text-anchor="middle" dominant-baseline="central">badge · card · resposta LLM</text>
  </g>

  <!-- setas fase LLM -->
  <path d="M552 310 L552 438 L128 438 L128 468" fill="none" class="arr" marker-end="url(#arrow)" stroke="var(--color-border-secondary)"/>
  <line x1="212" y1="498" x2="254" y2="498" class="arr" marker-end="url(#arrow)" stroke="var(--color-border-secondary)"/>
  <line x1="424" y1="498" x2="466" y2="498" class="arr" marker-end="url(#arrow)" stroke="var(--color-border-secondary)"/>
  <line x1="552" y1="526" x2="552" y2="576" class="arr" marker-end="url(#arrow)" stroke="var(--color-border-secondary)"/>

  <!-- ══════════════════════
       FASE DADOS
  ══════════════════════ -->

  <!-- Athena -->
  <g class="node c-amber" onclick="sendPrompt('Quais dados o Athena disponibiliza para o RAG?')">
    <rect x="44" y="686" width="168" height="56" rx="6" stroke-width="0.5"/>
    <text class="th" x="128" y="707" text-anchor="middle" dominant-baseline="central">AWS Athena</text>
    <text class="ts" x="128" y="727" text-anchor="middle" dominant-baseline="central">previsões processadas</text>
  </g>

  <!-- S3 Predict -->
  <g class="node c-amber" onclick="sendPrompt('Como o S3 Predict alimenta o Athena?')">
    <rect x="256" y="686" width="168" height="56" rx="6" stroke-width="0.5"/>
    <text class="th" x="340" y="707" text-anchor="middle" dominant-baseline="central">S3 Predict</text>
    <text class="ts" x="340" y="727" text-anchor="middle" dominant-baseline="central">job semanal de previsão</text>
  </g>

  <!-- setas fase dados -->
  <!-- Athena → RAG indexer -->
  <path d="M128 684 L128 620 L340 620 L340 404" fill="none" class="arr" marker-end="url(#arrow)" stroke="#BA7517" stroke-width="1.5" stroke-dasharray="5 3"/>
  <!-- S3 Predict → Athena -->
  <line x1="256" y1="714" x2="214" y2="714" class="arr" marker-end="url(#arrow)" stroke="var(--color-border-secondary)"/>

  <!-- label linha tracejada -->
  <text class="ts" x="234" y="615" text-anchor="middle" style="fill:var(--color-text-secondary)">indexa docs para FAISS</text>

  <!-- ── LEGEND ── -->
  <rect x="44"  y="768" width="12" height="12" rx="2" fill="#B5D4F4"/>
  <text class="ts" x="62"  y="779">Dash · FastAPI (cliente)</text>
  <rect x="220" y="768" width="12" height="12" rx="2" fill="#CECBF6"/>
  <text class="ts" x="238" y="779">RAG pipeline</text>
  <rect x="340" y="768" width="12" height="12" rx="2" fill="#9FE1CB"/>
  <text class="ts" x="358" y="779">Qwen 3 · LLM</text>
  <rect x="448" y="768" width="12" height="12" rx="2" fill="#FAC775"/>
  <text class="ts" x="466" y="779">Dados AWS</text>
</svg>